<mxfile host="Electron" modified="2023-07-02T22:41:02.587Z" agent="Mozilla/5.0 (Windows NT 10.0; Win64; x64) AppleWebKit/537.36 (KHTML, like Gecko) draw.io/21.5.1 Chrome/112.0.5615.204 Electron/24.6.0 Safari/537.36" etag="EqEqKxcPBPmSx_MkGQJZ" version="21.5.1" type="device">
  <diagram name="Page-1" id="--gIrZCqMD8FDnlDu6sC">
    <mxGraphModel dx="792" dy="845" grid="1" gridSize="10" guides="1" tooltips="1" connect="1" arrows="1" fold="1" page="1" pageScale="1" pageWidth="850" pageHeight="1100" math="0" shadow="0">
      <root>
        <mxCell id="0" />
        <mxCell id="1" parent="0" />
        <mxCell id="JkxKcrfG8U9U-BENvqg9-18" value="A Typical .NET Web Application" style="fillColor=none;strokeColor=#147EBA;dashed=1;verticalAlign=top;fontStyle=0;fontColor=#147EBA;whiteSpace=wrap;html=1;fontSize=20;" vertex="1" parent="1">
          <mxGeometry x="290" y="180" width="480" height="470" as="geometry" />
        </mxCell>
        <mxCell id="JkxKcrfG8U9U-BENvqg9-5" value="IIS -&amp;nbsp;Internet Information Services" style="sketch=0;aspect=fixed;pointerEvents=1;shadow=0;dashed=0;html=1;strokeColor=none;labelPosition=center;verticalLabelPosition=bottom;verticalAlign=top;align=center;fillColor=#00188D;shape=mxgraph.mscae.enterprise.web_server" vertex="1" parent="1">
          <mxGeometry x="518.42" y="461" width="38" height="50" as="geometry" />
        </mxCell>
        <mxCell id="JkxKcrfG8U9U-BENvqg9-7" value="SQL Server" style="sketch=0;aspect=fixed;pointerEvents=1;shadow=0;dashed=0;html=1;strokeColor=none;labelPosition=center;verticalLabelPosition=bottom;verticalAlign=top;align=center;fillColor=#00188D;shape=mxgraph.mscae.enterprise.database_generic" vertex="1" parent="1">
          <mxGeometry x="518.92" y="571" width="37" height="50" as="geometry" />
        </mxCell>
        <mxCell id="JkxKcrfG8U9U-BENvqg9-8" value=".NET Full Framework" style="sketch=0;aspect=fixed;pointerEvents=1;shadow=0;dashed=0;html=1;strokeColor=none;labelPosition=center;verticalLabelPosition=bottom;verticalAlign=top;align=center;fillColor=#00188D;shape=mxgraph.mscae.enterprise.settings" vertex="1" parent="1">
          <mxGeometry x="512.42" y="351" width="50" height="50" as="geometry" />
        </mxCell>
        <mxCell id="JkxKcrfG8U9U-BENvqg9-12" value="+" style="text;html=1;align=center;verticalAlign=middle;resizable=0;points=[];autosize=1;strokeColor=none;fillColor=none;fontSize=30;" vertex="1" parent="1">
          <mxGeometry x="517.42" y="421" width="40" height="50" as="geometry" />
        </mxCell>
        <mxCell id="JkxKcrfG8U9U-BENvqg9-13" value="+" style="text;html=1;align=center;verticalAlign=middle;resizable=0;points=[];autosize=1;strokeColor=none;fillColor=none;fontSize=30;" vertex="1" parent="1">
          <mxGeometry x="517.42" y="521" width="40" height="50" as="geometry" />
        </mxCell>
        <mxCell id="JkxKcrfG8U9U-BENvqg9-16" value="ASP. NET Classic" style="shape=image;verticalLabelPosition=bottom;labelBackgroundColor=default;verticalAlign=top;aspect=fixed;imageAspect=0;image=data:image/jpeg,/9j/4AAQSkZJRgABAQEAAAAAAAD/4QAuRXhpZgAATU0AKgAAAAgAAkAAAAMAAAABAEYAAEABAAEAAAABAAAAAAAAAAD/2wBDAAoHBwkHBgoJCAkLCwoMDxkQDw4ODx4WFxIZJCAmJSMgIyIoLTkwKCo2KyIjMkQyNjs9QEBAJjBGS0U+Sjk/QD3/2wBDAQsLCw8NDx0QEB09KSMpPT09PT09PT09PT09PT09PT09PT09PT09PT09PT09PT09PT09PT09PT09PT09PT09PT3/wAARCADdAUADASIAAhEBAxEB/8QAHwAAAQUBAQEBAQEAAAAAAAAAAAECAwQFBgcICQoL/8QAtRAAAgEDAwIEAwUFBAQAAAF9AQIDAAQRBRIhMUEGE1FhByJxFDKBkaEII0KxwRVS0fAkM2JyggkKFhcYGRolJicoKSo0NTY3ODk6Q0RFRkdISUpTVFVWV1hZWmNkZWZnaGlqc3R1dnd4eXqDhIWGh4iJipKTlJWWl5iZmqKjpKWmp6ipqrKztLW2t7i5usLDxMXGx8jJytLT1NXW19jZ2uHi4+Tl5ufo6erx8vP09fb3+Pn6/8QAHwEAAwEBAQEBAQEBAQAAAAAAAAECAwQFBgcICQoL/8QAtREAAgECBAQDBAcFBAQAAQJ3AAECAxEEBSExBhJBUQdhcRMiMoEIFEKRobHBCSMzUvAVYnLRChYkNOEl8RcYGRomJygpKjU2Nzg5OkNERUZHSElKU1RVVldYWVpjZGVmZ2hpanN0dXZ3eHl6goOEhYaHiImKkpOUlZaXmJmaoqOkpaanqKmqsrO0tba3uLm6wsPExcbHyMnK0tPU1dbX2Nna4uPk5ebn6Onq8vP09fb3+Pn6/9oADAMBAAIRAxEAPwD2SiiikIKKKKACiiigAooqCS8t4m2yTxq3oWFNJvYTaW5PRUQuIiuRIhHqDR9ph/56p+dFn2DmXcloqBry3Xlp4wPdhTY9Ss5X2R3ULN6BwTT5X2DmXcs0UUVIwooooAKKKKACkP4UjOEUliAB3JrOuPEOmW2RJeR5HYHP8qpRb2VyZTjD4nY06Kwf+E10T/n8H/fBp8Xi/R5pFjjuSzscABDzV+xn2JVem9pI26Kb5i+tOBB5FZGlwoqvFfWs1zJbRXETzxf6yMMCy/UVOSACScADk0ALRVE6xp40+a++2QG0hz5kwcbVx1yatQTxXMCTQOskUg3KynIIoAkooooAKKKKACiiigAorP1fW9P0C1W41K5SCNm2Lnku3oAOSfYVatLqK9tY7m3bdFKu5WxjI/GgCaiiigAooooAKKKKACiiigAqteXsNhbtNcMFQfmfp60+4uI7W3aaVgqKMk15f4r8RSX05AYqOiKD90f4mt6FF1ZeRzYnEKjHTdkviLxxd3rtBZMbeIcHafmP4/4VyjytISzszMepJzmoM470Dc7hVUszHAUDOa9mFOMFaKseHOc6jvJ3Zpadq95YyD7O7MpODGckGtHVfGzQoIrG3YTEfM0g4X6Dvitjw/4bWzRJrhRJdPyABnb/APXrI8VeHvseoSnaMsBIBjgA9R+dYN05z5TeKnTjd7HI3l/e37l7qeRyTnBOAPwptrK0Mg67e5B6VO9vsJUg+2KTyu+0/hWtrbF86aO68K+L7iymjtb6VprVyAkjHJj/AB7ivRYbpXIUkYI4PrXiGnfMhiOflGRn0r0Lw5qTTaaI5HPmwHbnPJHb+v5Vx4igviSNqGJcXyt3O3oqCzuBPAr9+hqevOas7M9SLTV0GaqajqEem2jTy9B0A6k+lWq4zxNcm81Lygf3cAwB6t3/AMK0ow55W6GOJq+yptrcxdZ127vSXuHKxk/LEpwPx9a56SR35Jx7Vavn8yc4+6pwKpEkn9K9qEFFJJWPmueVWo23ewnP/wCqul8Had5lybxxlUO2PPc+v4VzkUbTTJGgyzHAr0HRIlhjSJMbIl7dz/jWVeVo2XU7cPG8030OkjJYhQT+NXOmBVe0j2x7z1bn8KsV48nrZHuwTtqeNtJNoXxJ1nxGJP8AQ4b9LW8U9o3Vfn/A4P0BrvfHOrS2uix2dix+3anILW3I/h3fef8A4CuT+VY2j6ZHrGt+N7C5XMdxcKhyOmY1/wDrVR8B2upav4iE2tq3/FOw/wBnxFud8ueX+pTZ+lIoi8EiHQfhn4iW4gS+isbi4DRPwsu0Dg+xIrqNQ8Xw6LoOltbae095qCqlpYwEDkj17AetcrpoP/CsvG3B5u73HHWrOoStodx4T8RXELyadbWhguGVSxh3qMPj04x+NAHS6frmvrbX0uuaHFZC3g82NorkSLIecrx0PA/OqOheO7zVrBdVuNHNnoqW7SS3ck4J3KOQqYyVByN3fFXJvFmj+INJ1W30m8W7aG1Z5DGpKgEEAZPfg8Vk2+kT6t8ErewtVInk05di+rYzj8f60gH/APCb+I3sf7Xh8Ku2k7fM+a5UTmPruCfTtV7VPHcaWGkvolo1/d6v/wAesTOIx0ySxPTHpWdF8S9CXwxseSRNQWHyjp/lt53mYxt2/Ws5NM0XSvBGh6V4uuZNPuwplhnUlGgfrgOOhGelMDq28T3OkeGZtT8Sad9jniYqIIZRKZT0XafUnjFZU/jbX9KhXUNb8Mm20gkb5I7gSSwqf4mQdvp0rnBPrGu+AbiZ/O1OLTdSWW2mKYe6gjfOQB1OAfrWz4l8daPr/hW40zR5XvNR1GIwR2scZ3qzcZb+6BnJz6UAU/GWo6tP498PG10iO6ijMklpuuQouCU5P+zjg85p2ua74nh8d6THb6ICwtpWjtReqqznAyT2BX39avXtlJYeK/A1q+52t4pUZgM8iPH+NSeMNQt9E+IHhzU9Rcw2SxTwtMR8qsQCM/kaAItc1jWY9cgBnns1VVLwxqHVSRx2y+W446d+K72BneCNplCyFRuUdj3pkEkN5DFcxbZEdQ8b47HnIqekAUUUUAFFFFABR2orN1q++yWhCth3HB9B61UYuTSRM5qEXJnMeL9bDEwo37qPkn+8R1/KvNbi4a4uGkbqx49q1Nfv/MkESkjPJGc49qw95Pavbo01CKSPBqSdSTk9yTf1rrfDWkCEx3EwHnSHCAj7oP8AWsPRLETTi4mA8qM8A87j/hXonhW2+13rTuMrCOPdj/hU16nLFjox5qij1OksLMQgSMuHI4B7Vj+MLITRwT45BKH3B/yfzrpqo6vB5+nSrgEgZGfavJhUaqJnr1aSdJxR5BqNg0Jb5eFP6Gs/y/YV2Wp2yHDbeGG01y8iGORkPVTivZhK6PCbcXYhtswzoxHAOD3rqtMf7NdA8bWG045rmK3LOUyQRv1YDBz7UTV0Lmd0zu9BvMzvCT94bh+HWt+uA02/EGowSZ43hT9DxXfDpXk4iHLK/c9rBVeeDXYZLIIonkPRQTXBX0nlwzXDfeOWP1Ndlqz7bMoDy5xXCeJ5xDBHDnBc7iPYdP1rXCxuzDMJ6ehzUr9ucnkmo+D6UZyxP+RQOSAOpOBXqXPJpw5UaWkRgO0zYyvC54/z2rvdCtS6Jnv87n+QrjtKtRNPHEF3KvUHv/8Arr0uwtvs1uFP3z8zHHeuDF1LK3U9LBU3N36ItUUUV5p65xmq/FHw3oerXOn3ksyXMDbZNsBIzjPUdetdNpOp2us6ZBf2EgkguF3qwGPz9x0/CvnbxxYvqfxW1KyiIEk9yEQnpuKjH68V0nwi8UyaBrc/hrVGKRTSERhv+Wco4I+hx+Ypge4eWuCu1dp6jHBqO5kjt7OWWRQY40LMAOwGTU1U9Z/5Al9/17yf+gmkBg+FvHHh/wAS3clnooYOib2Bh2DFbWsataeH9Jmv7zcttAAW2LkgdOgrxb4Ef8jPff8AXuP516b8Uf8Aknmrf9cx/wChCgDI/wCFv+DPO83dL5v9/wCynP54pZvjD4OnAWZ5pFHQNbEj9RXFfCXwVonirTL+bWLVppIZlVCJXTAxk9DXoH/CnfB3/QOl/wDAmT/4qmBpeF/HGjeKpprfR2kJgUMwaIoAD0/kaz9X+I/hfw7rVxZXYeO8iIEhS3JzkZ6jr1rW8O+CdE8KzTS6PatC8wCuWlZ8gfU+5qnq/wANfDWu6nNqGoWLyXMxG9hO65wMdAfQCkBlH4zeEiQTNcEjoTbtkUknxj8ITDbJJO65zhrYmqHi/wCGHhfSPCOp31nYulxBbs8bGd2wfoTiuW+EngvRPFVlfyaxatM8MiqhErJwR7EUwO6Hxn8JqABPcADsIGrvIpFliSRfuuoYZ9DXFf8ACnfB/wD0Dpf/AAJk/wDiq7aNFjjVF4VQAPpSAdRRRQAUUUUAHTJrhvF2phIZJGOAeF+g/wAa6/UZTHakD7z/ACivIvHWoh9QFoh+WIAsM9P/AK9dmEp3lc4cZK6UUc3LK00jSMfmY560sEbTTKgPU8n0qDf9P51oWKiJC5wGboCcYFetY8yo3CN+puW21AkMfAUYFel+FrbyNIRsYMnzfhXmumxNLLHGATJKwUDHr/nNev28SwW8cS9EUAV5+OlZKK6muVQcpOb6EtNdQ6FT3GKdRXmnuHB6lEo86L+JSePpXJ6nFslEg6MMH612viSP7NqZbHyyruHvXLX8PnQSIoyy8rjvXsUJXin3Pnq8eSbTMTI9RWhpkwG+P1+YY5/z2rH836/Spba68qdGJwM4Oa6Groy5GdF5xBBHbkV6fp1wLrT4Jwc70BzXkk0hADCvQPBF8LnQthPzQuVI9B1rhxkLxTO7LpWm13Roaj+9mA6BP8/4V5h4lv0vNZlEbbo4hsUjvj/69dV4x8QrZpJaWzgzsP3jA/cB7fWvNvN6nJ61eFptLmYsTUU5uK1sWfM+tWrMbyZDxt4FZqOzuFHLMcCuo0HSn1C9igjBwOWbrgev+fWuqUlGLbObkbait2dT4P0ogG5kU4ByM9z/APWrsKit7dLaBIoxhUGAKlrxKtRzk2e7RpKlBRQUUUVmanzvrf8AyXZv+wnF3/3a6D4yeDpLW7TxPpakZYfaggwUYfdk/HofcA9zXP63/wAl2b/sJRd8f3a+gb2zhv7Oa1uY1khmUo6kZBBpjOV+G3jFPFnh1TMyjULUCO4UHr6P9Dj8wRXS6z/yBL7/AK95P/QTXgZF38JfiMD87WLnnjiWBv6j+Yr3a9u4r7w1c3Vs4eKW0d0YdwVNIR4x8CP+Rnvv+vcfzr034o/8k81b/rmP/QhXmXwI/wCRnvv+vcfzr034o/8AJPNW/wCuY/8AQhTGcj8BCo0bVckD/SF6n/Zr1jzF/vL+dfMvg/wZr3ie1uJdEuY4Y4nCyB52jycZHQc10P8AwqTxx/0EYf8AwMk/woEe9Ag9CD9KWuO+G3hrVvDOkXVvrU6TTSTb1ZZS+FwB1PvmuxpAc58Q/wDkn+tf9erVw3wC/wCQbq3/AF1T/wBBrufiH/yT/Wv+vVq4b4Bf8g3Vv+uqf+g0AeuUUUUAFFFFABRRSE4Un0FAGPrl5HZwS3ExwkK55Pf0/kK8Ivbx728muZM75XLHPQZr0b4iaviGSzjYYUbpCO7HoPwry/PavYwtPlhd9TyalT2k3bZE8eHcDt7961LLNxNj+BeTisqFHkIVQzM3AAP+frXZeG/DN5fKscCEKTl5SPlH+OK6ZSUVd6I48Qm7Rirt7G54J01rvVvtTD91bDOccFj0/Lk16LiqelaZDpNiltAOByxPVj61drxK9X2k79D2MHh/YUlF7vcKKKKxOowvFenm60wzRDMkB3cddvf/AB/CuBMinnPQeletEBgQRkEcg1534m8M3GnzvdWMZktWO4qoyU9fwruwlVL3X8jzMdh3Jc8fmcPq0Jtp968xycjtg/55qj5vufzroZPKvoGhkwCf0Pt9K5q8tZbO4MbFTn7rA5z/APXr0kefRnze69Gjcs7r7VZlM/vFGMdc/wCelX9D8TzaObmC3+/OuASeEI7/AF5rlYS8JLLKFZhgkHGf8/402NykgYEBgcg5puCkrNXRajKLbi7djU1O6YnaWLOx3MSck/8A66z/ADB+vf8Az9agmmd5nZ2+Zjxir2k6Te6tciK1t3lJOMAcD6nsKTaWrKp0uWKW7/Ut6TavcTR7ULSSELGoHJr2Lw5oi6PYKrAGdxlyP5fQVQ8L+Ek0GJrm42zXxXr2T2H+NQ/8J3bxB1ubOWObYrxopDeYC204/wB3qfY15eJxHP7sdj0sNhuR8892dbRRRXGdgUV5z8VfHmo+EDY2+lxxiW5DO0si7gAMDAHqc10vgbxDP4o8KWupXUIhmkyrhRgEg4yM9j1oA8Y1v/kux/7CUX/stfRFfO+t/wDJdm5/5iUX/stfRFAHHfErwcni3w8whVRf22ZLdsct6p9D/PFcB8MPF7x6ZqHhfUCVcQSm138EEKdyYPfqQPqK9wrw74w+EH0jU08SaWGijmceeUOPLk7N7A/z+tAFf4Ef8jPff9e4/nXpvxR/5J5q3/XMf+hCvM/gSSfFF8T1Nvn9a9L+KP8AyTzVv+uY/wDQhTGcn8A/+QLqv/Xwv/oNes183+AfiQPA9nd25037X9okD7vO2bcDGPumus/4aAX/AKAB/wDAr/7GgR7JRXnngr4rDxhr39mjSzanymk3mff0xxjaPWvQ6QHOfEP/AJJ/rX/Xq1cN8Av+Qbq3/XVP/Qa7n4h/8k/1v/r1euG+AP8AyDdW/wCuq/yoA9cooooAKKKKACkIyCPWqH9v6T/0ErP/AL/r/jR/b+k/9BKz/wC/6/41fJLsR7SHdGZe+BdI1DzPtInYyNuY+Zgk1Q/4Vb4d/wCedz/3+NdF/b+k/wDQSs/+/wCv+NH9v6T/ANBKz/7/AC/41pz1l1Zko0I7WM+w8EaFp2DDYozesjF8/nW7HGsSBY1CqOgAql/b+lf9BKz/AO/y/wCNH9v6T/0ErP8A7/r/AI1MvaS+K7Ki6UdYtGhRWf8A2/pP/QSs/wDv+v8AjR/b+k/9BKz/AO/6/wCNRyS7F+1h3RoUVn/2/pP/AEErP/v+v+NH9v6T/wBBKz/7/r/jRyS7B7SHdGhRWf8A2/pP/QSs/wDv+v8AjR/b+k/9BKz/AO/6/wCNHJLsHtId0TSabZyks9pCzHqTGCTTP7F04/8ALjb/APfsUz+39K/6CVn/AN/1/wAaP7f0r/oJWf8A3/X/ABqrVPMnmpd0P/sXTv8Anxt/+/Yo/sbTf+fG2/79imf2/pX/AEErP/v+v+NH9v6V/wBBKz/7/r/jT/eeYc1Puh39iab/AM+Ft/37FWYreK3TbDEka+iKAKqf2/pP/QSs/wDv+v8AjR/b+k/9BKz/AO/6/wCNJqb3uNTprZo0KrmwtTjNvFwMD5B0qv8A2/pP/QSs/wDv+v8AjR/b+k/9BKz/AO/6/wCNLkl2H7SHdGhRWf8A2/pP/QSs/wDv+v8AjR/b+k/9BKz/AO/6/wCNLkl2D2kO6F1XRdO1yBYdUs4bqNTlRIobafb0qzaWsFjbR29rCkMMY2oiLgKKq/2/pP8A0ErP/v8Ar/jR/b+k/wDQSs/+/wCv+NPkl2D2kO6HtpGnvdfamsrcz7t3mmMbs+ufWrtZ/wDb+k/9BKz/AO/6/wCNH9v6T/0ErP8A7/r/AI0ckuwe0h3RoVFcW8V1C0NxEksTDDK65Bqp/b+k/wDQSs/+/wCv+NH9v6T/ANBKz/7/AK/40uSXYPaQ7oltdJsLGQyWlnBA5GC0cYU/pU1xbxXULQ3Eayxt1VxkGqn9v6T/ANBKz/7/AK/40f2/pP8A0ErP/v8Ar/jT5Jdg9pDuhv8Awjmj/wDQLs/+/K0f8I5o/wD0C7P/AL8rTv7f0n/oJWf/AH/X/Gj+39J/6CVn/wB/1/xo5Jdg9rDuh9rpGn2U3m2tlbwyYxujjCn9Ku1n/wBv6T/0ErP/AL/r/jR/b+k/9BKz/wC/6/40uSXYPaQ7ouTwxXMLwzxrJG4wyOMgj3qK006z08MLO2hgDHLCNAufyqD+39J/6CVn/wB/1/xo/t/Sf+glZ/8Af9f8aOSXYPaQ7o0KKz/7f0n/AKCVn/3/AF/xo/t/Sf8AoJWf/f8AX/Gjkl2D2kO6NCis/wDt/Sf+glZ/9/1/xo/t/Sf+glZ/9/1/xo5Jdg9pDujx+jim76N/tX1J8YOorc8H6bbavq8kF5GZIxCXwGK8gqO31NHi7R4tH1REtU2W8ke5FJLYPfr+FYe3j7X2XU3+rz9l7bpcw6X8a2fCekR6xqxS6XdbxIWcA4z2HTn/APVT/ElhZaV4mjto0MdrtRpBuJ4J5569BQ68faez62uNYebpKr0vYwsYoq9rZ0/+0T/ZOfsu0YyWPPfrzWfk+nStISvFSta/cynBxk1e9uw6imbjRuNXoTZj6KZk9qMkdaNAsx9FMyf/ANRozzzkfjRoFmPopmfc/nR8wxnNGgWY+irug2KaprVtaSlhHI3zYOMgDP64xW3rEejS366RYWbW9ws6xtP2689+fTmsJ1oxnyWv+h0U8NKcHO9tdPM5eitHxFpsWkau1nAWYKq8nkkkVBNpF/bW4uJ7WaOLruK9KuNWDSd99jOVGcW01tuVaKZn0J/GkyfWtDIkopmfc/nSZ+v50ASUVEMd6dxQA+imcUmaAJMj1oyPWmbvajI9KBjsj1pcios/T8qM/wCcUAS5HrRUQNGfp+VAEtGfcVFn6flRQBLn3FGfcVFn6flRn6flQBLn3FJketR5+n5UZ+n5UAJS0zf/AJzRmkOx1fw9/wCQ/N/17N/6EtXfEH/E38Jx3gBMlnM0b9zjOP8AA1R+HhJ1+f8A69m/9CWrPhh1v59b0aRhtuN7Jnsc4/w/KvNraVXPtZnrUNaKpv7Vx/h/Gl+GBcnAlv7lIk7Erux/8Uai8U4Pju1U8g+TkHv8xo1+UWup6Lo8bDbZmPfg9WJH69/xpPFJ/wCK+s/+2P8A6FShrPn7pv5FTsqfs1sml8x2u6auoeOoLIAIkqru2jHAGT+gNTap4pXQ782Gl2Nt9ngO19w+8e+MdPqc81LqN0lp8TbaSQhUKKmScfeUgfqRWB4n0q8g8Q3Ci3lkSaTfGyqW3Z+nfORiimlNxjU2tp6iquUFKVPfm/A0pm0q48WaZNpjJtnYGaILgK38s+3tWh4g8TW+j39zp9rp0TgrmVicZdhnpjngj+XFZsWhxaH4h0RDOzXMxDSxnB2fl2zkfhWX4yP/ABVV9/vL/wCgrTjCFSaV20l+opznTpydkm2r/cbiPB4Q0C0uVto59RuxnfIPuDGePYZAwOvWpLO5h8bafcwXNtFDqECbopIxwf8A62cAj3qLxLBLq/hjS7+zRpkij2yhBkrwM8exBFHgi2l02O+1S8jeG3SLA3jbnHJxn6AfjUu3s3Uv71/1LV/aKnb3Gu3kL4RtFTQbvUbW1S6v1faiN2+n1zTJtegv7G5tfEdkLadR+4kSEg5/pjj2NUtAs9Ut9Gm1XS7smRGw9sqZ3Y65/PPFdDomqT+JLW5g1jT1EccfMxjIGfx7jrxSqaSlLdX76odJXgoLTTtdMxfDNjaWmjXWu6hEJhAdsMZGRnpn6kkD2xmrel+J49fvRpmq2NuYZ8rGUB+U+h/xGKj0eL+1fA2o6bZnzJ4pdyqeCw3Bh+eCPrWV4V0i7uPEVszW8sccD75GdSu3HbnuTgYq3yz55Teq2/QzjzQ5IwWj30+81/DjvoniyXR/LjkRpDiVx8wG3Ix+GKln8SS/8Jitr9kttsdwYt2DuOeMn3qtaXkd58TzLEwZPMKAjnomD+oNZ9wwHxAfJ4+29/rS5FKTct+W/wAylNwglHZSNXxhqBuPEEGmuscMayxv54Hzjt37c/pWjqUTx6VrIaOQkxZWSS43mXHcKOFA9q5zx5BMviKSdoZBEyIqyFTtJx69M+1c55jnGWY4G0c9vT6VdPDqcIyTtYiriHCpNNXuGR6ijI9/yplFegeZYk59qT8RTM0maAsSZ/KjI7H86jzS5oCw/IHpRmo8j1oz70BYkz7j+dJketNoz6UCsPyvrSEj/CmZ96Mj1FA7D8/5NGRTM+9H40BYfke1Gfem0fjQKw/P+c0mf85pn40tA7Ds0b/rTfzpM/WgLBkUZ96iyKdketBdi9purXOk3DT2bhZCpQkjPHX+gpLXVLmy1AXtvJtnBLZxnOf/ANdUs+9Gcd6hwi7trcpSkrK+2xcn1Oe51E30sm64Lh92OMjp+AwKfd6zd32pR308im4j27SF6Y5FSeHtGfXtTFor+WoUsz46V1X/AArI5/5CH/jlYVK1Gm0paO34HTToVqsXKOzZx+oapcapdm6u5N0pAGVGOlalt441m2gEImSQAYDSJkj8f8a3P+FYn/oIf+OVyniHRn0PUzaM/mDaGVsYzmpjUoVbRVnbpYc6WIo3m767kR1a7bU1v3mMl0pyHb/PT2pl7fzajdyXNy26WQgsQMDgY/pVTdQMlgAMkngDvXSoxTul5HM5SlpfzNTSfEOoaJuFnNtRj8yOuV+v1qXVfE+o6zGIruYeUOfLRdoJ9/WtDSfAWpaiiy3GLSI8jeMsfw7V0MXw009cedd3D/QBa5KlfDQld2b8kdlPDYmcOVXscNpet32kSs9jMU3feUjKt+FXNR8Y6tqdubeaZUjYYYRLgt9fauyk+G2lMuEmuUPruB/pWTf/AA0ljQtp94JCOiyrjP4ipWJw05Xa18y3hMVCDinp2ORsNTutLuhcWcpikHfqCPQjuK1rzxvrN7bGFp0jVuGMS7Sfx/wrFvrO4026a3u4milXqpHX/EV1ek+ADqel2939t2ecm7bszit6sqKtOaXkznowryvCDfmjlrG/n067jurZtssZO0kZHoaJ76a4vXunc+e77yw4+au1/wCFZHGf7Q/8co/4VkcZ/tD/AMh1H1vD3v19DT6liLWt5nMal4m1HVbJLa9dJEVgwIXBJHH9TWXv9q7v/hWJ/wCgh/5DqC4+Gd0iE217E5x911I/WiGKw8dIuyFPB4iTvJXOK3UZ9qtanpV5o9z5N7A0bH7rdQ30NU811RlGSvHY5JQcXZqzHZHoKMmmZFGRTJsOz9Pypcmm5pMigLD8mjf7U3NGaAsO3GjNNzRmgLDtxoyajz7UZNAWJM0ZqPJoyaLhYnghlu5khgjaSVztVVHJrsv+EI/s7w7eXuovuuUhLIinhDj9TWF4MP8AxV2n/wC+3/oDV6d4p48L6j/1wb+Vefiq841IwWidj08Jh4TpSnJXavY8YyaMmmZozXoXPNsPyaOaZk0ZNFwsGf8AOKTIpm8+9G8+9IrlH5ozUe8+tKCzkKoYsx4A70D5T034aaf5WnXF8w+adtqn2H/167eqGi2C6Zo9raKBmKMBsd27/rmrkkixRtI7BUUZJPYV85Wn7So5H01CHs6aiPrhfiZp++yt75RzE3lsfY9P1/nXcqQwDA5BHBqhrmnjVNGurTjdJGQpPZuo/XFOhP2dRSFiKftKbieH7q7j4eeH0unfVLpAyRtthVum4dW/kPzrgiWBYEFWU4IPavaPBsaReEtPCDAaLefqSSf1Jr1sdVcafu9TyMBSUquvQ3ainuIrdN08qRr6scVLXmHxGtNRk1ZJmilkshGAhUEqp759D9a8ihTVWfK3Y9evVdKDklc9KhuIrhS0MqSAd1OakrwvRNYn0XU4riF2VQwEiA8MvcEV7EfEekKoLanZjI6ecv8AjWtfDSpNJapmdDFRqpuWjRS8W6Amu6RIFUC6hBeFvf8Au/Q9PyNT+Ev+RWsOo/dDg1HJ4y0GLO7U7c8fwnP8qvaMYG0uJ7V1eBstGwGAVJJFZyc1T5ZJ2uXFQdTmi1e2pfo6UVwvxG1e/wBLm04WN1JAJFk3BO+NmPyyfzqaVN1JqKe5dWoqcHJ9DuqK8d03xzrFneRvcXTXEGcPHIB0+vrXr0MgmhSRfuuoYfjV18PKi1zdSKGIjWT5ehS1rSINb06S1nUcj5GxyjeorxO6he0uprebh4mKsPpXvleM+OoRB4tvwvRtr/iVB/nXXl9R3cHtuceY0otKXW9jci+Gl3LCkv8AaMIDKGx5Zzz+NYGl+G9Q1i9lt7VF2QuUeV+EGDj/ACBXsdng2UH/AFzX+VZ91d6Z4U0zfMwhi3HCgZZ2PJwO5NTHG1dVu3sVLA0tHsluczb/AAvh2D7TqEzN3EaBR+uar33wxkRC1hfh27JMuM/iP8KfL8VF879xprGPP8cmCfy6frXTeHfFNn4jic2+6OaP/WQv1HuPUe9E6mKprnlsEKWEqPkjueQ31lc6ddvbXcTRSr1Ujr/iKr7x7/lXqPxF0kXehm+Rf31qQxI6lDwR+ufwNeVZHpXo4av7WHN16nm4nD+ym49OhJn8P1roNC8GajrcYnAW3t25Eki8sPYd/wBKn8CeGl1m9N3dJm0tyOD0dvT6DrXpupajZ6LYNcXcgihQYGOp9AB3PtXNicW4vkp7nThcGpLnqbHJxfC62CDztRnZ/VEVR+uar3PwvfI+y6mNvcSxf4Gorr4pyecRaaevlg8GV+T+XT9a1/D/AMQLTVrhLW7j+y3LnCZbKOfQHsfY1g5YuC5mdCjg5vlSMb/hV95/0EoP+/Z/xo/4Vfef9BGD/v2f8a9FlZ0hZokDuBkKTjJ+tcJJ8UlikeOTSZFdCVZTMOCPwpU8Rial+R3sVUw2Gp25la5LofgC50nW7W+e+ikSFiSojIJypHr711ur2LalpN1Zo4Rp4ygYjIGa5jRviHHrGrW9iuntEZmKhvNBxgE+ntXUarfjTNKub0x+YIELlQcZx71hWdZzXPv0NqKoqDUNup5xqXw8utN06e8kv4nWFC5URnnH41g6Ho0uvX5tYZkhbaWy+T0+ldLq3xHj1PSbqzGnvGZ4ygYyg4z+FcNHK8R3RuyNjGVOK9Wg6zg1PR9Dyq6oKacNV1LN9bNY3s1s7K7RMVLDocVBvxTC7OxLMST1J5zSZ+n5V1K9tTlkk3oFFRZH1o3e1BViXNdF4G0wan4nt9wzFb/vm46kfdH54P4Gua3j3r1L4YaZ5Okz37r89w+1SR/Cv/181zYqpyUm+r0OnC0ueqk9kdxXOeO7/wCweFbrBw84EK/8C6/pk/hXR15p8VdRzcWNgrfdUzOB78D+TV4+Ghz1Uj18TPkpNnY+Eb/+0vDNlMTlxGEb6rx/StqvPPhVqO63vdPY8xsJUBPY8H8iAfxr0OliIclRoeHnz00zxbxvpv8AZnii6VRiOc+egH+11/8AHs13Hw41VLzw+LMsPOtGK4zyVJyD+pH4VV+KGmefpUGoIPmt22tj+63/ANcCvOdL1a60i+S7spCkidQeQw9D6ivSUfrOHS6o85v6viG+jPoGkKhgQRkHsa5TQviBpmqokdy4tLk8FZD8pPs3+OK6lJFkQMjKynoQc5ry505QdpKx6kKkZr3Xczr7w3pWog/aLGFif4guD+YrldT+F9vIGfTLloW6hJBuX8+v8676iqhXqQ2ZE6FOfxI8F1bRr3RLgQX0BjZvusDlX+hr2Dwh/wAipp3/AFxFXNV0u21ixktbyMPG44yOVPqPQ0zQbB9L0a2spGDNAuzcOM471tXxPtqaTWqZjQw3sajaejNGuC+JOk3+p3GnGxtZbgRrJuKD7uSmPzwfyrvaDzXPSqOnNSXQ6KtNVIOL6njuleBNZvrqNbq2a2t85eSQjOPYdc/lXr0UQhhSNfuooUfhUlFXWxEqzXN0Io4eNFPl6hXifji5Fz4s1Fh0VhHn6KAa9T8S+IINA0t55GUzMCIo88s3+FeHXEzzyySynLyEsx9Sa68BTd3N7bHLj5p2gt9z6Ds/+PKD/rmv8q8m+IWpve+JpINx8u1ARVz3PJP45A/CvWbL/jyg/wCua/yrw7xQ5PijUjnkTsKnAxTqtvoVjm/ZJLqZ+TW/4GumtvFlmFOBKTG3PUEf/WFc5uPqfyrZ8Ik/8JXp3p5o/lXqVknTafY8yimqifmeweI1D+GtSUjINrJ/6Ca8Jz3Ne7+Iv+Rb1L/r1k/9BNeBtkoRnGRj6VwZd8MjtzBXnE9y8H2A07wvZJtw8iCV/q3P9a4D4i6u974hayVj5FoAoA6FyMk/XoPwr1a3QR20SDoqgD8qx7vwZol9dSXNxZB5ZG3OxduT+dctGtGFV1Jq511qMp0lCLseJ5NGSMEEgg8EHpXs/wDwgPh7/nwX/vtv8aP+EB8P/wDPgP8Avtv8a7v7Qp9mcP8AZ9TuW/C2pNq3h2zupG3SMm2Q+rDg/njP415j4/sRY+LJyoAS4VZh+PB/UGvWdN0y10i0FtZReXEGLBck4J+tedfFiNV1Wwk43NCy5+jf/Xrlwc17f3dmdWLg3QV90Yngg/8AFY6d/vt/6A1eqeLf+RU1P/r3b+VeUeByf+E00znPzt3/ANhq9X8W/wDIp6n/ANe7Vpi/48fl+ZGEVqEvmeHZoyaipcn3r1DyrD6XNR5P5/pRTDlEyKMio8ijIpXL5SaKNppo4o+XkYKoHOSeK9/0mxXTtKtrRBgRRha8g+H2mnUvFtuSMx2wM7556cD9SPyr2yvJzCpeSh2PUwNOyc+4VzGs+BNO13U5L67nuxI4C7UcBQAMDGV/H6k109FcMJyg7xdmds4KatJXRzeh+CNP8P6gbyzmujIUKFZHBUg49vYflXSUUUpSlJ3k7sIRjFWirIo6zp41TSbmzb/lrGVHse1eVx/DXX34ZLdB7y5r2KitqWJnSTUepnVw8KrTl0PJ0+FerNjzbq1X6En+lc2upanoN7NbW17NC0MhjIRzg4OOh7V73XmPjvwVfS6lJqelwmdJuZYk+8reoHfNdeHxXPJxq2szlrYXkXNTvcqaT8UNStZFTU40u4e7KNkg/Lg/kPrXqdpdRXtrFc27h4pVDow7g8ivCbPwxrV/OIYNOnDE4LSIUVfck9q9t0TTv7I0Wzsd+8wRLGWHcjvWeNhSi04b+ReElUd+fY0KKKQEHkEEe1cB2i1y3jDxg3hWWzQWYuftCuSfM27du32PXd+ldTXmHxeOLvSP9yb+aV0YWCnVUZLQxxEnCm2tyT/hbj9tIH/f/wD+xqhefFTV5xttbW2ts9WOXI/kP0NcPn3/AEpUDSOqRgu7EKqgZJJ6Ae5r1vqlFa2PL+s1npcs3moXWpXBnvZ5J5T/ABOen+Aqu5+Q8dvWu7svhRezWYku9Qjt52GfKWLeF9i2R+n61x2uaTdaFfSWV8qiQLuDKfldT3H5H8qqnWpS92D2FKjUj70lue/2X/Hlb/8AXNf5V4X4oP8AxVGp/wDXw3evdLL/AI8oP+ua/wAq8I8UnHirU/8Ar4auHAfxJHZjVeCM3Pt+fNbPhA/8VbpvHPmj+VYe+trwcQfF2mf9dv6V6NX+G/RnBTXvr1PZ/Ef/ACLWp/8AXrJ/6Ca8AZiEYgcgZGTXv/iPjwzqf/XrL/6Ca+ft46dq4cv+GR145e+j6NtpBLaROpyGQEH6ivKNe8aeIdN1++tIr/bHDKyqvkocDqOdvoRXd+BdSXU/Clm27Lwp5L57FeP5Yri/ihoEtvqQ1iFM286hJiB91xwCfYjA+orDDKMazhNHRXcnSUoMyP8AhYPiTj/iY/8AkCP/AOJo/wCFg+JOf+Jj/wCQI+P/AB2uZ3f5zSoHlcRxozyMcKqjJY+g969T2FL+VHne1qd2dL/wsLxHz/xMf/IMfH/jtZera9qGuvE+pXHnNGCEOxVxn6CvXdB8J2Vn4etbS+s7eaYLulLoG+Y9fy6fhXmnj6OwtvE72umW8cMcEarII1wC55/QECuWhVpSqcsI2a6m9alUjBOUrp9BvgUn/hNNM/32/wDQGr1jxh/yKOqf9e7fyryPwIc+N9M/66N/6A1eueLwW8I6oFBJ+zPwPpWOL/jx+X5m2FX7mSPCMmjJqPNGf89a9U83lJMn1pM+4/Gmb6N5oCzG/jRn6Uzf7Uu8e9Bdj134VaX9m0ObUHUeZdyfKf8AYXgfmcn8q7uvFLD4l6tpljBZ21rYiKFAi5Rug/4F1qz/AMLZ13/n2sf++G/+KryK2ErVJuXc9KniKcIKPY7D4l6vLpnh1I7aZ4Zp5QoeNirADk8j6Y/GvKv7e1f/AKC1/wD+BL/41P4i8V33ieS3e/SFPIBCrECAc465J9BWNv8AauzDUFTglJanNWquc7p6Gl/wkGr/APQVv/8AwJf/ABr174fas+q+GITPK0s0DGKRmbJOORknrwRXh+/2rd8O+MNQ8Mxzx2KQOkzBmWUE4I9MHvRicOqkLRSuFCq4S956HvlQXF1FaoHnkWNCwXcxwAScD9cD8a8k/wCFs65/z72H/fDf/FVU1L4k6rqmnXFldW1iYZ0KNhGzg+nzda4FgamlzseLhbQ9torwnR/H2uaNGsUdytzAowI7gb8fQ9a6SD4xSgAXGkqT3ZJ+v4EUp4KqnpqOOKg1roepUV5lJ8YlC/utJYt6NMB/SsbU/inrN6hS0SGyQj7yje4/E8fpSjgqzeqsN4mmtmeg+L/F1v4asWAZZL6QERRA5I/2j6AfrVrwdLJceFNPmmYvLJFvZj1JPOa8EnuJbmd5riVpZZDlndslj711OmfEnV9K023sbeCyaKBAis6Nkj3+auieCapqMNXfUwjik5ty26HtteW/GE4vNH/3J/5x1nf8La1z/n3sP++G/wDiqwfEfiq88USW0l8kCNbBlTygRndtznJ/2RRhsLUp1FKWyHWrwnBpGTvHpWj4fvYLDxHp91c4EEU6s5I4A9fw6/hWXvPrRn3/AFr0pJSi4vqcEbppn0wjq6BlIKkZBB615F8Wb6C41q3t4SryW8LCUg9CTkL9cAn8a5O18Q6tY2v2W11O6hg6CNJDgD29PwxVBnMhYsxYsckk5J/+vXDQwbpz5mzrq4lTjax9J2X/AB4W/wD1zX+VeC+Kif8AhK9U4/5eGrSj+JfiKKNY1mt9qgKMwjPFc3e3st/ezXdwVMszF2IGMmnhcPOlNylbUMRWjUikiPJ9BW34Oz/wmGmdP9d/Q1g7z6/lViwv5tNv4bu2ZRNC25SwyAfpXZNNxaXVHLDSSb6Hv/iX/kWNU/69Zf8A0E189g/5FdJd/ETX72zmtp5oDHMhjcCEDgjBrmN3vXNhKMqSfN1N8TNVWrHVeCPFf/COakUuSTY3BAkx/Af71ezq1pqtiGUxXNtMvBGGVga+bt/v+tami+JtU0BydNu2jjY5aJhuRj34PQ+4xU4nCe0fPF2ZVGu4LlktD02++Fek3M7SW89xbAnOxCCo+ma1dA8D6V4fkE8KPPcDpLMclfp2FcRb/GDUUQC40+2lb1Rin+NVL74r63cxlLaO2tQR94LvYfTPH6VzuhipLlb0NlUoJ8yWp6P4q8UWvhrTWeR1a6kBEMWeWPr9B614ZcXMt3cy3E7FpZWLux7k80y5u5764e4upnnmf7zyNuJ/PtUOa7cPh1RXds5a1V1X5I1/Dl8mm+JdPu5W2xxzDex6AHg/oTX0B8k0XZ0cfUEGvmjIrotE8ea1oUC29vOk1uvCxzruC/Qg5A9qyxWGlValF6o0w9VU009melaz4G0WPSb6W1sI45/JYoR/CcdQK8WD+9dddfFPXbqB4dllGHBUskZJ5+prjs/T8KvC06kE+d3+ZNdwk1yokz70Z9xUefp+dGfpXUc/KJmjJqPceaNxo0KsSZNGaj3GnUwsOzSZNJ6896PxoCwuTRn2FMJwad+NAWFyaM005HekBzQFh+TRk1Hup+33NAWsLk0ZNNPFN59aB2JMmjJqPNG40gsSZNGT61HuNFMLEmT60ZPrUeaXNK4WH5PrRUdFFwsSUVGaKLhYkoplJRcLElJuFMoouFh+4UZHrTKN1FwsPyPWjcKZRuouFh+4UbhTKKLjsP3CjNMoouFh+aM/X8qZRRcLD8/WjNMoouFj/9k=;" vertex="1" parent="1">
          <mxGeometry x="490" y="231" width="94.84" height="65.5" as="geometry" />
        </mxCell>
        <mxCell id="JkxKcrfG8U9U-BENvqg9-17" value="+" style="text;html=1;align=center;verticalAlign=middle;resizable=0;points=[];autosize=1;strokeColor=none;fillColor=none;fontSize=30;" vertex="1" parent="1">
          <mxGeometry x="517.42" y="311" width="40" height="50" as="geometry" />
        </mxCell>
        <mxCell id="JkxKcrfG8U9U-BENvqg9-20" value="Windows Server" style="sketch=0;aspect=fixed;pointerEvents=1;shadow=0;dashed=0;html=1;strokeColor=none;labelPosition=center;verticalLabelPosition=bottom;verticalAlign=top;align=center;fillColor=#00188D;shape=mxgraph.mscae.enterprise.windows_server" vertex="1" parent="1">
          <mxGeometry x="316" y="181" width="39" height="50" as="geometry" />
        </mxCell>
      </root>
    </mxGraphModel>
  </diagram>
</mxfile>
